<svg width="77" height="18" viewBox="0 0 77 18" fill="none" xmlns="http://www.w3.org/2000/svg">
<path d="M4.76 15V3.08H0.8V0.799999H11.2V3.08H7.24V15H4.76ZM11.0722 15V0.799999H15.5722C17.0922 0.799999 18.2855 1.18 19.1522 1.94C20.0189 2.7 20.4522 3.74 20.4522 5.06C20.4522 5.74 20.2989 6.34 19.9922 6.86C19.6989 7.38 19.3055 7.79333 18.8122 8.1C18.3189 8.39333 17.7789 8.56 17.1922 8.6L17.1122 8.34C18.1389 8.38 18.9055 8.60667 19.4122 9.02C19.9189 9.42 20.2122 10.08 20.2922 11L20.6322 15H18.1522L17.8522 11.58C17.8122 11.0733 17.7122 10.68 17.5522 10.4C17.4055 10.12 17.1722 9.92667 16.8522 9.82C16.5455 9.71333 16.1189 9.66 15.5722 9.66H13.5522V15H11.0722ZM13.5522 7.38H15.5122C16.2855 7.38 16.8722 7.19333 17.2722 6.82C17.6855 6.44667 17.8922 5.91333 17.8922 5.22C17.8922 4.52667 17.6855 4 17.2722 3.64C16.8722 3.26667 16.2855 3.08 15.5122 3.08H13.5522V7.38ZM20.0044 15L24.0444 0.799999H27.1244L31.1644 15H28.6244L25.5844 3.6L22.5444 15H20.0044ZM22.4844 11.64L23.1644 9.42H28.0044L28.6844 11.64H22.4844ZM35.4566 15.32C34.2966 15.32 33.3166 15.02 32.5166 14.42C31.7166 13.82 31.1032 12.9667 30.6766 11.86C30.2632 10.7533 30.0566 9.44 30.0566 7.92C30.0566 6.38667 30.2632 5.06667 30.6766 3.96C31.1032 2.85333 31.7166 2 32.5166 1.4C33.3166 0.786666 34.2966 0.48 35.4566 0.48C36.7899 0.48 37.9032 0.92 38.7966 1.8C39.6899 2.68 40.2632 3.92667 40.5166 5.54L37.9766 5.66C37.8032 4.7 37.4899 3.97333 37.0366 3.48C36.5966 2.97333 36.0699 2.72 35.4566 2.72C34.8299 2.72 34.3032 2.92667 33.8766 3.34C33.4632 3.74 33.1499 4.32667 32.9366 5.1C32.7232 5.87333 32.6166 6.81333 32.6166 7.92C32.6166 9.01333 32.7232 9.94667 32.9366 10.72C33.1499 11.4933 33.4632 12.08 33.8766 12.48C34.3032 12.88 34.8299 13.08 35.4566 13.08C36.0966 13.08 36.6499 12.8133 37.1166 12.28C37.5832 11.7333 37.8966 10.94 38.0566 9.9L40.5966 10C40.3566 11.68 39.7832 12.9867 38.8766 13.92C37.9832 14.8533 36.8432 15.32 35.4566 15.32ZM42.4888 10.94V7.32L47.3688 0.799999H50.3288L42.4888 10.94ZM40.2088 15V0.799999H42.6888V15H40.2088ZM47.6488 15L43.5688 8.2L45.2488 6.58L50.4488 15H47.6488Z" fill="white"/>
<path d="M50.3049 15V5.06H52.0409V14.44L50.8509 13.404H56.5769V15H50.3049ZM59.7355 15.168C59.0355 15.168 58.4195 15.0093 57.8875 14.692C57.3648 14.3747 56.9588 13.922 56.6695 13.334C56.3801 12.746 56.2355 12.0553 56.2355 11.262C56.2355 10.4687 56.3801 9.778 56.6695 9.19C56.9588 8.602 57.3648 8.14933 57.8875 7.832C58.4195 7.51467 59.0355 7.356 59.7355 7.356C60.4355 7.356 61.0468 7.51467 61.5695 7.832C62.1015 8.14933 62.5121 8.602 62.8015 9.19C63.0908 9.76867 63.2355 10.4593 63.2355 11.262C63.2355 12.0553 63.0908 12.746 62.8015 13.334C62.5121 13.922 62.1015 14.3747 61.5695 14.692C61.0468 15.0093 60.4355 15.168 59.7355 15.168ZM59.7355 13.684C60.3048 13.684 60.7435 13.474 61.0515 13.054C61.3595 12.6247 61.5135 12.0273 61.5135 11.262C61.5135 10.4967 61.3595 9.904 61.0515 9.484C60.7435 9.05467 60.3048 8.84 59.7355 8.84C59.1661 8.84 58.7275 9.05467 58.4195 9.484C58.1115 9.904 57.9575 10.4967 57.9575 11.262C57.9575 12.0273 58.1115 12.6247 58.4195 13.054C58.7275 13.474 59.1661 13.684 59.7355 13.684ZM66.31 15.168C65.61 15.168 64.994 15.0093 64.462 14.692C63.9393 14.3747 63.5333 13.922 63.244 13.334C62.9547 12.746 62.81 12.0553 62.81 11.262C62.81 10.4687 62.9547 9.778 63.244 9.19C63.5333 8.602 63.9393 8.14933 64.462 7.832C64.994 7.51467 65.61 7.356 66.31 7.356C67.01 7.356 67.6213 7.51467 68.144 7.832C68.676 8.14933 69.0867 8.602 69.376 9.19C69.6653 9.76867 69.81 10.4593 69.81 11.262C69.81 12.0553 69.6653 12.746 69.376 13.334C69.0867 13.922 68.676 14.3747 68.144 14.692C67.6213 15.0093 67.01 15.168 66.31 15.168ZM66.31 13.684C66.8793 13.684 67.318 13.474 67.626 13.054C67.934 12.6247 68.088 12.0273 68.088 11.262C68.088 10.4967 67.934 9.904 67.626 9.484C67.318 9.05467 66.8793 8.84 66.31 8.84C65.7407 8.84 65.302 9.05467 64.994 9.484C64.686 9.904 64.532 10.4967 64.532 11.262C64.532 12.0273 64.686 12.6247 64.994 13.054C65.302 13.474 65.7407 13.684 66.31 13.684ZM69.5805 17.1V7.524H71.1625L71.2045 9.232L71.0365 9.148C71.2232 8.56933 71.5219 8.126 71.9325 7.818C72.3525 7.51 72.8565 7.356 73.4445 7.356C74.1352 7.356 74.7045 7.53333 75.1525 7.888C75.6099 8.24267 75.9459 8.714 76.1605 9.302C76.3845 9.89 76.4965 10.5433 76.4965 11.262C76.4965 11.9807 76.3845 12.634 76.1605 13.222C75.9459 13.81 75.6099 14.2813 75.1525 14.636C74.7045 14.9907 74.1352 15.168 73.4445 15.168C73.0619 15.168 72.7072 15.1073 72.3805 14.986C72.0632 14.8553 71.7879 14.6733 71.5545 14.44C71.3305 14.1973 71.1625 13.8987 71.0505 13.544L71.2325 13.348V17.1H69.5805ZM73.0245 13.684C73.5752 13.684 74.0045 13.4833 74.3125 13.082C74.6205 12.6713 74.7745 12.0647 74.7745 11.262C74.7745 10.4593 74.6205 9.85733 74.3125 9.456C74.0045 9.04533 73.5752 8.84 73.0245 8.84C72.6699 8.84 72.3572 8.92867 72.0865 9.106C71.8252 9.28333 71.6152 9.554 71.4565 9.918C71.3072 10.2727 71.2325 10.7207 71.2325 11.262C71.2325 11.8033 71.3072 12.256 71.4565 12.62C71.6059 12.9747 71.8159 13.2407 72.0865 13.418C72.3572 13.5953 72.6699 13.684 73.0245 13.684Z" fill="white"/>
</svg>
